<?xml version="1.0" encoding="UTF-8" standalone="no"?>
<svg
   width="512"
   height="512"
   viewBox="0 0 512 512"
   fill="none"
   version="1.1"
   id="svg7"
   sodipodi:docname="appicon.svg"
   inkscape:version="1.3.2 (1:1.3.2+202311252150+091e20ef0f)"
   xmlns:inkscape="http://www.inkscape.org/namespaces/inkscape"
   xmlns:sodipodi="http://sodipodi.sourceforge.net/DTD/sodipodi-0.dtd"
   xmlns="http://www.w3.org/2000/svg"
   xmlns:svg="http://www.w3.org/2000/svg">
  <defs
     id="defs7" />
  <sodipodi:namedview
     id="namedview7"
     pagecolor="#ffffff"
     bordercolor="#000000"
     borderopacity="0.25"
     inkscape:showpageshadow="2"
     inkscape:pageopacity="0.0"
     inkscape:pagecheckerboard="0"
     inkscape:deskcolor="#d1d1d1"
     inkscape:zoom="0.66360658"
     inkscape:cx="50.481717"
     inkscape:cy="327.00098"
     inkscape:window-width="1366"
     inkscape:window-height="729"
     inkscape:window-x="0"
     inkscape:window-y="21"
     inkscape:window-maximized="1"
     inkscape:current-layer="svg7" />
  <g
     id="g7"
     transform="matrix(3.1146476,0,0,3.1146476,6.8012033,-47.19028)">
    <path
       fill-rule="evenodd"
       clip-rule="evenodd"
       d="m 126.001,37 c 0,-1.6569 -1.343,-3 -3,-3 H 36.1733 c -1.6568,0 -3,1.3432 -3,3 v 41.1463 c 0,0.8157 -0.3321,1.5962 -0.9199,2.1618 l -3,2.8867 c -1.9059,1.8339 -5.0801,0.4832 -5.0801,-2.1617 V 34 28 c 0,-1.6569 1.3432,-3 3,-3 h 6 92.8277 6 c 1.657,0 3,1.3431 3,3 v 6 30.9722 c 0,0.8157 -0.332,1.5962 -0.92,2.1618 l -3,2.8867 c -1.906,1.8339 -5.08,0.4832 -5.08,-2.1617 z m 0.92,44.8957 c -0.588,0.5656 -0.92,1.3461 -0.92,2.1617 v 39.7706 c 0,1.657 -1.343,3 -3,3 H 36.1733 c -1.6568,0 -3,-1.343 -3,-3 V 94.3448 c 0,-2.645 -3.1742,-3.9957 -5.0801,-2.1617 l -3,2.8867 c -0.5878,0.5656 -0.9199,1.3461 -0.9199,2.1617 v 29.5965 6 c 0,1.657 1.3432,3 3,3 h 6 92.8277 6 c 1.657,0 3,-1.343 3,-3 v -6 -45.6573 c 0,-2.645 -3.174,-3.9957 -5.08,-2.1617 z"
       fill="#323232"
       id="path2" />
    <path
       d="M 111,69.6364 86.1861,44.8007 C 84.636,43.2493 82.1258,43.2353 80.5585,44.7693 L 18,106"
       stroke="#871c35"
       stroke-width="9"
       id="path3" />
    <path
       d="m 50,91.3636 24.5019,24.7904 c 1.5536,1.571 4.0873,1.586 5.6583,0.031 L 142,55"
       stroke="#155a31"
       stroke-width="9"
       id="path4" />
    <rect
       x="71.670898"
       y="72.497597"
       width="7.19661"
       height="7.19661"
       fill="#323232"
       id="rect4" />
    <rect
       x="80.3069"
       y="72.497597"
       width="7.19661"
       height="7.19661"
       fill="#323232"
       id="rect5" />
    <rect
       x="71.670898"
       y="81.133598"
       width="7.19661"
       height="7.19661"
       fill="#323232"
       id="rect6" />
    <rect
       x="80.3069"
       y="81.133598"
       width="7.19661"
       height="7.19661"
       fill="#323232"
       id="rect7" />
  </g>
  <text
     xml:space="preserve"
     style="font-size:33.3333px;line-height:1.5em;font-family:Ubuntu;-inkscape-font-specification:Ubuntu;letter-spacing:2.92476px;fill:#323232;fill-opacity:1;stroke-width:42.605;stroke-linecap:round;stroke-linejoin:round"
     x="256.66663"
     y="420.04227"
     id="text7"><tspan
       sodipodi:role="line"
       id="tspan7"
       x="258.12903"
       y="420.04227"
       style="font-weight:normal;font-size:33.3333px;text-align:center;text-anchor:middle;stroke-width:42.605">THN-TAMUS Kft.</tspan></text>
  <text
     xml:space="preserve"
     style="font-size:53.3333px;line-height:1.5em;font-family:Ubuntu;-inkscape-font-specification:Ubuntu;letter-spacing:2.92476px;fill:#323232;fill-opacity:1;stroke-width:42.605;stroke-linecap:round;stroke-linejoin:round"
     x="253.97333"
     y="492.80341"
     id="text8"><tspan
       sodipodi:role="line"
       id="tspan8"
       x="255.4357"
       y="492.80341"
       style="font-weight:normal;font-size:53.3333px;text-align:center;text-anchor:middle;stroke-width:42.605">Ingatlankalkulátor</tspan></text>
</svg>
