<?xml version="1.0" encoding="UTF-8" standalone="no"?>
<!-- Uploaded to: SVG Repo, www.svgrepo.com, Generator: SVG Repo Mixer Tools -->

<svg
   width="403"
   height="403"
   viewBox="0 0 12.09 12.09"
   fill="none"
   version="1.1"
   id="svg1"
   sodipodi:docname="favicon.svg"
   inkscape:version="1.3.2 (1:1.3.2+202311252150+091e20ef0f)"
   xmlns:inkscape="http://www.inkscape.org/namespaces/inkscape"
   xmlns:sodipodi="http://sodipodi.sourceforge.net/DTD/sodipodi-0.dtd"
   xmlns="http://www.w3.org/2000/svg"
   xmlns:svg="http://www.w3.org/2000/svg">
  <defs
     id="defs1" />
  <sodipodi:namedview
     id="namedview1"
     pagecolor="#ffffff"
     bordercolor="#000000"
     borderopacity="0.25"
     inkscape:showpageshadow="2"
     inkscape:pageopacity="0.0"
     inkscape:pagecheckerboard="0"
     inkscape:deskcolor="#d1d1d1"
     inkscape:zoom="0.6725"
     inkscape:cx="398.51301"
     inkscape:cy="400"
     inkscape:window-width="1366"
     inkscape:window-height="729"
     inkscape:window-x="0"
     inkscape:window-y="21"
     inkscape:window-maximized="1"
     inkscape:current-layer="svg1" />
  <ellipse
     style="fill:#4d4d4d;stroke:none;stroke-width:0.43701;stroke-linecap:round;stroke-linejoin:round"
     id="path2"
     cx="6.0450001"
     cy="6.0449996"
     rx="6.0450001"
     ry="6.0449996" />
  <path
     d="M 5.223635,4.1977117 V 3.6641001 c 0,-0.459768 0,-0.6896561 0.089511,-0.8652637 C 5.3918567,2.6443641 5.5174988,2.5187766 5.6720061,2.440073 5.8476593,2.3505942 6.0776343,2.3505942 6.5375432,2.3505942 h 1.8887431 c 0.459909,0 0.6898842,0 0.8655375,0.089479 0.1545066,0.078704 0.2801495,0.2042911 0.3588606,0.3587634 0.08951,0.1756076 0.08951,0.4054957 0.08951,0.8652637 v 4.7614578 c 0,0.459768 0,0.6896722 -0.08951,0.8652718 C 9.5719733,9.4452895 9.4463304,9.570894 9.2918238,9.6495805 9.1161705,9.7390633 8.8861953,9.7390633 8.4262863,9.7390633 H 7.687213 M 6.8660202,3.9924764 H 8.0978093 M 6.8660202,5.6343585 H 8.0978093 M 2.3494607,7.6867109 4.1658239,6.0359628 C 4.3218833,5.8941453 4.399913,5.8232159 4.4883144,5.7963711 c 0.077857,-0.023683 0.1609948,-0.023683 0.2388521,0 0.088401,0.026845 0.1664312,0.097774 0.3224907,0.2395917 l 1.816363,1.6507481 M 3.1706533,6.9403934 v 2.1419173 c 0,0.2299046 0,0.3448364 0.044751,0.4326358 0.039368,0.07725 0.1021815,0.1400113 0.1794389,0.1793754 0.087831,0.044745 0.2028099,0.044745 0.4327644,0.044745 h 1.5602661 c 0.229975,0 0.3449419,0 0.4327684,-0.044745 0.077274,-0.039366 0.1400545,-0.102125 0.1794307,-0.1793754 0.044755,-0.087799 0.044755,-0.2027312 0.044755,-0.4326358 V 6.9403934"
     stroke="#000000"
     stroke-width="2"
     stroke-linecap="round"
     stroke-linejoin="round"
     id="path1"
     style="stroke:#ffffff;stroke-width:0.43701;stroke-dasharray:none" />
</svg>
