<svg width="160" height="160" viewBox="0 0 160 160" fill="none" xmlns="http://www.w3.org/2000/svg">
<path d="M160 80C160 124.183 124.183 160 80 160C35.8172 160 0 124.183 0 80C0 35.8172 35.8172 0 80 0C124.183 0 160 35.8172 160 80Z" fill="white"/>
<path fill-rule="evenodd" clip-rule="evenodd" d="M126.001 37C126.001 35.3431 124.658 34 123.001 34H36.1733C34.5165 34 33.1733 35.3432 33.1733 37V78.1463C33.1733 78.962 32.8412 79.7425 32.2534 80.3081L29.2534 83.1948C27.3475 85.0287 24.1733 83.678 24.1733 81.0331V34V28C24.1733 26.3431 25.5165 25 27.1733 25H33.1733H126.001H132.001C133.658 25 135.001 26.3431 135.001 28V34V64.9722C135.001 65.7879 134.669 66.5684 134.081 67.134L131.081 70.0207C129.175 71.8546 126.001 70.5039 126.001 67.859V37ZM126.921 81.8957C126.333 82.4613 126.001 83.2418 126.001 84.0574V123.828C126.001 125.485 124.658 126.828 123.001 126.828H36.1733C34.5165 126.828 33.1733 125.485 33.1733 123.828V94.3448C33.1733 91.6998 29.9991 90.3491 28.0932 92.1831L25.0932 95.0698C24.5054 95.6354 24.1733 96.4159 24.1733 97.2315V126.828V132.828C24.1733 134.485 25.5165 135.828 27.1733 135.828H33.1733H126.001H132.001C133.658 135.828 135.001 134.485 135.001 132.828V126.828V81.1707C135.001 78.5257 131.827 77.175 129.921 79.009L126.921 81.8957Z" fill="#323232"/>
<path d="M111 69.6364L86.1861 44.8007C84.636 43.2493 82.1258 43.2353 80.5585 44.7693L18 106" stroke="#871C35" stroke-width="9"/>
<path d="M50 91.3636L74.5019 116.154C76.0555 117.725 78.5892 117.74 80.1602 116.185L142 55" stroke="#155A31" stroke-width="9"/>
<rect x="71.6709" y="72.4976" width="7.19661" height="7.19661" fill="#323232"/>
<rect x="80.3069" y="72.4976" width="7.19661" height="7.19661" fill="#323232"/>
<rect x="71.6709" y="81.1336" width="7.19661" height="7.19661" fill="#323232"/>
<rect x="80.3069" y="81.1336" width="7.19661" height="7.19661" fill="#323232"/>
</svg>
