<svg width="160" height="160" viewBox="0 0 160 160" fill="none" xmlns="http://www.w3.org/2000/svg">
<path d="M160 80C160 124.183 124.183 160 80 160C35.8172 160 0 124.183 0 80C0 35.8172 35.8172 0 80 0C124.183 0 160 35.8172 160 80Z" fill="white"/>
<path fill-rule="evenodd" clip-rule="evenodd" d="M124.066 40C124.066 37.7909 122.275 36 120.066 36H39.2378C37.0287 36 35.2378 37.7909 35.2378 40V80.3411C35.2378 81.1567 34.9057 81.9372 34.3179 82.5028V82.5028C32.412 84.3368 29.2378 82.986 29.2378 80.3411V36V34C29.2378 31.7909 31.0287 30 33.2378 30H35.2378H124.066H126.066C128.275 30 130.066 31.7909 130.066 34V36V66.2503C130.066 67.066 129.733 67.8465 129.146 68.4121V68.4121C127.24 70.246 124.066 68.8953 124.066 66.2503V40ZM124.986 79.5768C124.398 80.1424 124.066 80.9229 124.066 81.7385V120.828C124.066 123.037 122.275 124.828 120.066 124.828H39.2378C37.0287 124.828 35.2378 123.037 35.2378 120.828V95.8293C35.2378 93.1843 32.0636 91.8336 30.1577 93.6675V93.6675C29.5699 94.2331 29.2378 95.0136 29.2378 95.8293V124.828V126.828C29.2378 129.037 31.0287 130.828 33.2378 130.828H35.2378H124.066H126.066C128.275 130.828 130.066 129.037 130.066 126.828V124.828V81.7385C130.066 79.0936 126.891 77.7429 124.986 79.5768V79.5768Z" fill="#323232"/>
<path d="M107.796 70.593L85.7138 48.5105C84.1641 46.9607 81.6557 46.9467 80.0887 48.4791L24 103.329" stroke="#871C35" stroke-width="6"/>
<path d="M52.808 90.2348L74.8905 112.317C76.4403 113.867 78.9486 113.881 80.5156 112.349L136.604 57.4985" stroke="#155A31" stroke-width="6"/>
<rect x="72.4497" y="73.2119" width="6.54726" height="6.54726" fill="#323232"/>
<rect x="80.3064" y="73.2119" width="6.54726" height="6.54726" fill="#323232"/>
<rect x="72.4497" y="81.0686" width="6.54726" height="6.54726" fill="#323232"/>
<rect x="80.3064" y="81.0686" width="6.54726" height="6.54726" fill="#323232"/>
</svg>
