<svg version="1.2" xmlns="http://www.w3.org/2000/svg" viewBox="0 0 1596 1596" width="1596" height="1596">
	<title>Otp_bank_Logo-svg</title>
	<style>
		.s0 { fill: #6ec72d } 
		.s1 { fill: #00674c } 
	</style>
	<ellipse id="path13616" class="s0" cx="799.9" cy="798.2" rx="353.7" ry="353.9"/>
	<path id="path13620" fill-rule="evenodd" class="s1" d="m0.6 798.2c0-440.3 356.5-797.2 796.5-797.7v288.2c-280.9 0.5-508.4 228.4-508.4 509.5 0 281.4 228 509.4 509.3 509.4 279.6 0 509.3-225.9 509.3-511.3l288.2 0.1c0 442.3-357 799.4-797.5 799.4-440.4 0-797.4-357.1-797.4-797.6zm1247.4-245.4c-112.1 0-202.7-90.7-202.7-202.8 0-112.2 90.6-202.8 202.7-202.8 112.1 0 202.8 90.6 202.8 202.8 0 112.1-90.7 202.8-202.8 202.8z"/>
</svg>